<?xml version="1.0" encoding="UTF-8"?> <!-- Generator: Adobe Illustrator 21.0.0, SVG Export Plug-In . SVG Version: 6.00 Build 0) --> <svg xmlns="http://www.w3.org/2000/svg" xmlns:xlink="http://www.w3.org/1999/xlink" version="1.1" id="Camada_1" x="0px" y="0px" viewBox="0 0 683.6 128" style="enable-background:new 0 0 683.6 128;" xml:space="preserve"> <style type="text/css"> .st0{fill:#FFFFFF;} .st1{fill:url(#SVGID_1_);} .st2{fill:url(#SVGID_2_);} .st3{fill:url(#SVGID_3_);} .st4{fill:url(#SVGID_4_);} .st5{fill:url(#SVGID_5_);} .st6{fill:url(#SVGID_6_);} .st7{fill:url(#SVGID_7_);} .st8{fill:url(#SVGID_8_);} .st9{fill:url(#SVGID_9_);} .st10{fill:url(#SVGID_10_);} .st11{fill:url(#SVGID_11_);} .st12{fill:url(#SVGID_12_);} .st13{fill:url(#SVGID_13_);} .st14{fill:url(#SVGID_14_);} .st15{fill:url(#SVGID_15_);} .st16{fill:url(#SVGID_16_);} .st17{fill:url(#SVGID_17_);} .st18{fill:url(#SVGID_18_);} .st19{fill:url(#SVGID_19_);} .st20{fill:url(#SVGID_20_);} .st21{fill:url(#SVGID_21_);} .st22{fill:url(#SVGID_22_);} .st23{fill:url(#SVGID_23_);} .st24{fill:url(#SVGID_24_);} .st25{fill:url(#SVGID_25_);} .st26{fill:url(#SVGID_26_);} .st27{fill:url(#SVGID_27_);} .st28{fill:url(#SVGID_28_);} .st29{fill:url(#SVGID_29_);} .st30{fill:url(#SVGID_30_);} .st31{fill:url(#SVGID_31_);} .st32{fill:url(#SVGID_32_);} </style> <title>Asset 31</title> <path class="st0" d="M214.4,93.8l-14.1-60.5c-0.2-0.9-1.2-1.5-2.1-1.3c-0.7,0.2-1.2,0.7-1.3,1.3l-14.1,60.5c-0.2,1,0.5,1.9,1.4,2 c0.9,0.2,1.7-0.4,2-1.2l4.1-17.5h16.6l4.1,17.5c0.2,0.8,0.9,1.4,1.7,1.4c0.1,0,0.3,0,0.4,0C214.1,95.8,214.7,94.8,214.4,93.8 C214.4,93.9,214.4,93.8,214.4,93.8z M191.1,73.6l7.5-32l7.5,32H191.1z"></path> <path class="st0" d="M485.3,93.8l-14.1-60.5c-0.2-0.9-1.2-1.5-2.1-1.3c-0.7,0.2-1.2,0.7-1.3,1.3l-14.1,60.5c-0.2,1,0.5,1.9,1.4,2 c0.9,0.2,1.7-0.4,2-1.2l4.1-17.5h16.6l4.1,17.5c0.2,0.8,0.9,1.4,1.7,1.4c0.1,0,0.3,0,0.4,0C484.9,95.8,485.5,94.8,485.3,93.8 C485.3,93.9,485.3,93.8,485.3,93.8z M461.9,73.6l7.5-32l7.5,32H461.9z"></path> <path class="st0" d="M243.2,96h-22c-1,0-1.8-0.8-1.8-1.8c0,0,0,0,0,0V33.8c-0.1-1,0.7-1.8,1.6-1.9c1-0.1,1.8,0.7,1.9,1.6 c0,0.1,0,0.2,0,0.3v58.7h20.2c1-0.1,1.8,0.7,1.9,1.6c0.1,1-0.7,1.8-1.6,1.9C243.4,96,243.3,96,243.2,96z"></path> <path class="st0" d="M485.3,93.8l-14.1-60.5c-0.2-0.9-1.2-1.5-2.1-1.3c-0.7,0.2-1.2,0.7-1.3,1.3l-14.1,60.5c-0.2,1,0.5,1.9,1.4,2 c0.9,0.2,1.7-0.4,2-1.2l4.1-17.5h16.6l4.1,17.5c0.2,0.8,0.9,1.4,1.7,1.4c0.1,0,0.3,0,0.4,0C484.9,95.8,485.5,94.8,485.3,93.8 C485.3,93.9,485.3,93.8,485.3,93.8z M461.9,73.6l7.5-32l7.5,32H461.9z"></path> <path class="st0" d="M284.5,96h-22c-1,0-1.8-0.8-1.8-1.8c0,0,0,0,0,0V33.8c-0.1-1,0.7-1.8,1.6-1.9c1-0.1,1.8,0.7,1.9,1.6 c0,0.1,0,0.2,0,0.3v58.7h20.2c1-0.1,1.8,0.7,1.9,1.6c0.1,1-0.7,1.8-1.6,1.9C284.7,96,284.6,96,284.5,96z"></path> <path class="st0" d="M252.3,96c-1,0-1.8-0.8-1.8-1.8l0,0V33.8c-0.1-1,0.7-1.8,1.6-1.9c1-0.1,1.8,0.7,1.9,1.6c0,0.1,0,0.2,0,0.3v60.5 C254,95.2,253.3,96,252.3,96C252.3,96,252.3,96,252.3,96z"></path> <path class="st0" d="M446.3,96h-22c-1,0-1.8-0.8-1.8-1.8c0,0,0,0,0,0V33.8c-0.1-1,0.7-1.8,1.6-1.9c1-0.1,1.8,0.7,1.9,1.6 c0,0.1,0,0.2,0,0.3v58.7h20.2c1-0.1,1.8,0.7,1.9,1.6c0.1,1-0.7,1.8-1.6,1.9C446.4,96,446.3,96,446.3,96z"></path> <path class="st0" d="M314.4,92.5h-20.2V66.3h18.1c1,0.1,1.8-0.7,1.9-1.6c0.1-1-0.7-1.8-1.6-1.9c-0.1,0-0.2,0-0.3,0h-18.1V35.5h20.2 c1,0.1,1.8-0.7,1.9-1.6c0.1-1-0.7-1.8-1.6-1.9c-0.1,0-0.2,0-0.3,0h-22c-1,0-1.8,0.8-1.8,1.8v60.5c0,1,0.8,1.8,1.8,1.8c0,0,0,0,0,0 h22c1,0.1,1.8-0.7,1.9-1.6c0.1-1-0.7-1.8-1.6-1.9C314.6,92.5,314.5,92.5,314.4,92.5L314.4,92.5z"></path> <path class="st0" d="M333.4,96c-7.9,0-14.3-6.5-14.4-14.4V46.4c0.2-7.9,6.8-14.2,14.8-14c7.6,0.2,13.8,6.4,14,14v35.3 C347.7,89.6,341.3,96,333.4,96z M333.4,35.5c-6,0-10.8,4.9-10.9,10.8v35.3c-0.2,6,4.5,11,10.5,11.2c6,0.2,11-4.5,11.2-10.5 c0-0.2,0-0.4,0-0.7V46.4C344.2,40.4,339.3,35.5,333.4,35.5z"></path> <path class="st0" d="M560.4,96c-7.9,0-14.3-6.5-14.4-14.4V46.4c0.2-7.9,6.8-14.2,14.8-14c7.6,0.2,13.8,6.4,14,14v35.3 C574.7,89.6,568.3,96,560.4,96z M560.4,35.5c-6,0-10.8,4.9-10.8,10.8v35.3c-0.2,6,4.5,11,10.5,11.2c6,0.2,11-4.5,11.2-10.5 c0-0.2,0-0.4,0-0.7V46.4C571.2,40.4,566.3,35.5,560.4,35.5z"></path> <path class="st0" d="M166.4,96c-7.9,0-14.4-6.4-14.4-14.4V46.4c0.2-7.9,6.8-14.2,14.8-14c7.6,0.2,13.8,6.4,14,14v3.5 c-0.1,1-0.9,1.7-1.9,1.6c-0.9-0.1-1.6-0.8-1.6-1.6v-3.5c-0.2-6-5.2-10.7-11.2-10.5c-5.7,0.2-10.3,4.8-10.5,10.5v35.3 c-0.2,6,4.5,11,10.5,11.2s11-4.5,11.2-10.5c0-0.2,0-0.4,0-0.7v-9.9h-13.5c-1,0-1.8-0.8-1.8-1.8c0-1,0.8-1.8,1.8-1.8c0,0,0,0,0,0H179 c1,0,1.8,0.8,1.8,1.8c0,0,0,0,0,0v11.6C180.7,89.6,174.3,96,166.4,96z"></path> <linearGradient id="SVGID_1_" gradientUnits="userSpaceOnUse" x1="76.81" y1="87.7" x2="128.0017" y2="87.7" gradientTransform="matrix(1 0 0 -1 0 130)"> <stop offset="0" style="stop-color:#7FC99E"></stop> <stop offset="0.21" style="stop-color:#68BEA5"></stop> <stop offset="0.44" style="stop-color:#57B5AB"></stop> <stop offset="0.69" style="stop-color:#4DB1AE"></stop> <stop offset="1" style="stop-color:#4AAFAF"></stop> </linearGradient> <path class="st1" d="M127.9,64c1.1-24.2-48.6,4.3-51.1-43.4C79.4,46,130.4,28.3,127.9,64z"></path> <linearGradient id="SVGID_2_" gradientUnits="userSpaceOnUse" x1="85.7" y1="78.42" x2="85.7" y2="130.001" gradientTransform="matrix(1 0 0 -1 0 130)"> <stop offset="0" style="stop-color:#7FC99E"></stop> <stop offset="0.31" style="stop-color:#7CC79F"></stop> <stop offset="0.56" style="stop-color:#72C3A2"></stop> <stop offset="0.79" style="stop-color:#61BAA8"></stop> <stop offset="1" style="stop-color:#4AAFAF"></stop> </linearGradient> <path class="st2" d="M64,0.1c24.2-1.1-3.5,50.1,43.4,51.5C82,49,99.7-2.5,64,0.1z"></path> <linearGradient id="SVGID_3_" gradientUnits="userSpaceOnUse" x1="76.81" y1="44.3" x2="128.0017" y2="44.3" gradientTransform="matrix(1 0 0 -1 0 130)"> <stop offset="0" style="stop-color:#7FC99E"></stop> <stop offset="0.31" style="stop-color:#7CC79F"></stop> <stop offset="0.56" style="stop-color:#72C3A2"></stop> <stop offset="0.79" style="stop-color:#61BAA8"></stop> <stop offset="1" style="stop-color:#4AAFAF"></stop> </linearGradient> <path class="st3" d="M127.9,64c1.1,24.2-47.8-4.7-51.1,43.4C79.4,82,130.4,99.7,127.9,64z"></path> <linearGradient id="SVGID_4_" gradientUnits="userSpaceOnUse" x1="85.7" y1="1.9991" x2="85.7" y2="53.69" gradientTransform="matrix(1 0 0 -1 0 130)"> <stop offset="0" style="stop-color:#7FC99E"></stop> <stop offset="0.31" style="stop-color:#7CC79F"></stop> <stop offset="0.56" style="stop-color:#72C3A2"></stop> <stop offset="0.79" style="stop-color:#61BAA8"></stop> <stop offset="1" style="stop-color:#4AAFAF"></stop> </linearGradient> <path class="st4" d="M64,127.9c24.2,1.1-3.5-50.2,43.4-51.6C82,78.9,99.7,130.4,64,127.9z"></path> <linearGradient id="SVGID_5_" gradientUnits="userSpaceOnUse" x1="25.5941" y1="22.6" x2="25.5941" y2="66" gradientTransform="matrix(1 0 0 -1 0 130)"> <stop offset="0" style="stop-color:#7FC99E"></stop> <stop offset="0.31" style="stop-color:#7CC79F"></stop> <stop offset="0.56" style="stop-color:#72C3A2"></stop> <stop offset="0.79" style="stop-color:#61BAA8"></stop> <stop offset="1" style="stop-color:#4AAFAF"></stop> </linearGradient> <path class="st5" d="M0.1,64C-1,88.2,48,59.5,51.2,107.4C48.6,82-2.5,99.7,0.1,64z"></path> <linearGradient id="SVGID_6_" gradientUnits="userSpaceOnUse" x1="51.19" y1="87.7" x2="-1.714719e-03" y2="87.7" gradientTransform="matrix(1 0 0 -1 0 130)"> <stop offset="0" style="stop-color:#7FC99E"></stop> <stop offset="0.21" style="stop-color:#68BEA5"></stop> <stop offset="0.44" style="stop-color:#57B5AB"></stop> <stop offset="0.69" style="stop-color:#4DB1AE"></stop> <stop offset="1" style="stop-color:#4AAFAF"></stop> </linearGradient> <path class="st6" d="M0.1,64C-1,39.8,48.5,68,51.2,20.6C48.6,46-2.5,28.3,0.1,64z"></path> <linearGradient id="SVGID_7_" gradientUnits="userSpaceOnUse" x1="42.345" y1="78.51" x2="42.345" y2="130.0012" gradientTransform="matrix(1 0 0 -1 0 130)"> <stop offset="0" style="stop-color:#7FC99E"></stop> <stop offset="0.31" style="stop-color:#7CC79F"></stop> <stop offset="0.56" style="stop-color:#72C3A2"></stop> <stop offset="0.79" style="stop-color:#61BAA8"></stop> <stop offset="1" style="stop-color:#4AAFAF"></stop> </linearGradient> <path class="st7" d="M64,0.1c-24.2-1.1,3.6,50-43.3,51.4C46,48.9,28.3-2.5,64,0.1z"></path> <linearGradient id="SVGID_8_" gradientUnits="userSpaceOnUse" x1="42.3" y1="1.999" x2="42.3" y2="53.61" gradientTransform="matrix(1 0 0 -1 0 130)"> <stop offset="0" style="stop-color:#7FC99E"></stop> <stop offset="0.31" style="stop-color:#7CC79F"></stop> <stop offset="0.56" style="stop-color:#72C3A2"></stop> <stop offset="0.79" style="stop-color:#61BAA8"></stop> <stop offset="1" style="stop-color:#4AAFAF"></stop> </linearGradient> <path class="st8" d="M64,127.9c-24.2,1.1,3.5-50.2-43.4-51.5C46,79,28.3,130.4,64,127.9z"></path> <linearGradient id="SVGID_9_" gradientUnits="userSpaceOnUse" x1="76.81" y1="87.7" x2="128.0017" y2="87.7" gradientTransform="matrix(1 0 0 -1 0 130)"> <stop offset="0" style="stop-color:#7FC99E"></stop> <stop offset="0.21" style="stop-color:#68BEA5"></stop> <stop offset="0.44" style="stop-color:#57B5AB"></stop> <stop offset="0.69" style="stop-color:#4DB1AE"></stop> <stop offset="1" style="stop-color:#4AAFAF"></stop> </linearGradient> <path class="st9" d="M127.9,64c1.1-24.2-48.6,4.3-51.1-43.4C79.4,46,130.4,28.3,127.9,64z"></path> <linearGradient id="SVGID_10_" gradientUnits="userSpaceOnUse" x1="85.7" y1="78.42" x2="85.7" y2="130.001" gradientTransform="matrix(1 0 0 -1 0 130)"> <stop offset="0" style="stop-color:#7FC99E"></stop> <stop offset="0.31" style="stop-color:#7CC79F"></stop> <stop offset="0.56" style="stop-color:#72C3A2"></stop> <stop offset="0.79" style="stop-color:#61BAA8"></stop> <stop offset="1" style="stop-color:#4AAFAF"></stop> </linearGradient> <path class="st10" d="M64,0.1c24.2-1.1-3.5,50.1,43.4,51.5C82,49,99.7-2.5,64,0.1z"></path> <linearGradient id="SVGID_11_" gradientUnits="userSpaceOnUse" x1="76.81" y1="44.3" x2="128.0017" y2="44.3" gradientTransform="matrix(1 0 0 -1 0 130)"> <stop offset="0" style="stop-color:#7FC99E"></stop> <stop offset="0.31" style="stop-color:#7CC79F"></stop> <stop offset="0.56" style="stop-color:#72C3A2"></stop> <stop offset="0.79" style="stop-color:#61BAA8"></stop> <stop offset="1" style="stop-color:#4AAFAF"></stop> </linearGradient> <path class="st11" d="M127.9,64c1.1,24.2-47.8-4.7-51.1,43.4C79.4,82,130.4,99.7,127.9,64z"></path> <linearGradient id="SVGID_12_" gradientUnits="userSpaceOnUse" x1="85.7" y1="1.9991" x2="85.7" y2="53.69" gradientTransform="matrix(1 0 0 -1 0 130)"> <stop offset="0" style="stop-color:#7FC99E"></stop> <stop offset="0.31" style="stop-color:#7CC79F"></stop> <stop offset="0.56" style="stop-color:#72C3A2"></stop> <stop offset="0.79" style="stop-color:#61BAA8"></stop> <stop offset="1" style="stop-color:#4AAFAF"></stop> </linearGradient> <path class="st12" d="M64,127.9c24.2,1.1-3.5-50.2,43.4-51.6C82,78.9,99.7,130.4,64,127.9z"></path> <linearGradient id="SVGID_13_" gradientUnits="userSpaceOnUse" x1="25.5941" y1="22.6" x2="25.5941" y2="66" gradientTransform="matrix(1 0 0 -1 0 130)"> <stop offset="0" style="stop-color:#7FC99E"></stop> <stop offset="0.31" style="stop-color:#7CC79F"></stop> <stop offset="0.56" style="stop-color:#72C3A2"></stop> <stop offset="0.79" style="stop-color:#61BAA8"></stop> <stop offset="1" style="stop-color:#4AAFAF"></stop> </linearGradient> <path class="st13" d="M0.1,64C-1,88.2,48,59.5,51.2,107.4C48.6,82-2.5,99.7,0.1,64z"></path> <linearGradient id="SVGID_14_" gradientUnits="userSpaceOnUse" x1="51.19" y1="87.7" x2="-1.714719e-03" y2="87.7" gradientTransform="matrix(1 0 0 -1 0 130)"> <stop offset="0" style="stop-color:#7FC99E"></stop> <stop offset="0.21" style="stop-color:#68BEA5"></stop> <stop offset="0.44" style="stop-color:#57B5AB"></stop> <stop offset="0.69" style="stop-color:#4DB1AE"></stop> <stop offset="1" style="stop-color:#4AAFAF"></stop> </linearGradient> <path class="st14" d="M0.1,64C-1,39.8,48.5,68,51.2,20.6C48.6,46-2.5,28.3,0.1,64z"></path> <linearGradient id="SVGID_15_" gradientUnits="userSpaceOnUse" x1="42.345" y1="78.51" x2="42.345" y2="130.0012" gradientTransform="matrix(1 0 0 -1 0 130)"> <stop offset="0" style="stop-color:#7FC99E"></stop> <stop offset="0.31" style="stop-color:#7CC79F"></stop> <stop offset="0.56" style="stop-color:#72C3A2"></stop> <stop offset="0.79" style="stop-color:#61BAA8"></stop> <stop offset="1" style="stop-color:#4AAFAF"></stop> </linearGradient> <path class="st15" d="M64,0.1c-24.2-1.1,3.6,50-43.3,51.4C46,48.9,28.3-2.5,64,0.1z"></path> <linearGradient id="SVGID_16_" gradientUnits="userSpaceOnUse" x1="42.3" y1="1.999" x2="42.3" y2="53.61" gradientTransform="matrix(1 0 0 -1 0 130)"> <stop offset="0" style="stop-color:#7FC99E"></stop> <stop offset="0.31" style="stop-color:#7CC79F"></stop> <stop offset="0.56" style="stop-color:#72C3A2"></stop> <stop offset="0.79" style="stop-color:#61BAA8"></stop> <stop offset="1" style="stop-color:#4AAFAF"></stop> </linearGradient> <path class="st16" d="M64,127.9c-24.2,1.1,3.5-50.2-43.4-51.5C46,79,28.3,130.4,64,127.9z"></path> <linearGradient id="SVGID_17_" gradientUnits="userSpaceOnUse" x1="-585.9002" y1="153.3391" x2="-534.706" y2="153.3391" gradientTransform="matrix(0.7071 -0.7071 -0.7071 -0.7071 580.4337 -266.2644)"> <stop offset="0" style="stop-color:#7FC99E"></stop> <stop offset="0.21" style="stop-color:#68BEA5"></stop> <stop offset="0.44" style="stop-color:#57B5AB"></stop> <stop offset="0.69" style="stop-color:#4DB1AE"></stop> <stop offset="1" style="stop-color:#4AAFAF"></stop> </linearGradient> <path class="st17" d="M109.2,18.8C92.8,0.9,77.8,56.2,42.4,24.3C62.1,40.3,85.7-8.2,109.2,18.8z"></path> <linearGradient id="SVGID_18_" gradientUnits="userSpaceOnUse" x1="-577.0084" y1="144.0654" x2="-577.0084" y2="195.6408" gradientTransform="matrix(0.7071 -0.7071 -0.7071 -0.7071 580.4337 -266.2644)"> <stop offset="0" style="stop-color:#7FC99E"></stop> <stop offset="0.31" style="stop-color:#7CC79F"></stop> <stop offset="0.56" style="stop-color:#72C3A2"></stop> <stop offset="0.79" style="stop-color:#61BAA8"></stop> <stop offset="1" style="stop-color:#4AAFAF"></stop> </linearGradient> <path class="st18" d="M18.8,18.8c16.4-17.9,33,37.9,67.1,5.7C66.1,40.6,42.3-8.2,18.8,18.8z"></path> <linearGradient id="SVGID_19_" gradientUnits="userSpaceOnUse" x1="-585.9002" y1="109.944" x2="-534.706" y2="109.944" gradientTransform="matrix(0.7071 -0.7071 -0.7071 -0.7071 580.4337 -266.2644)"> <stop offset="0" style="stop-color:#7FC99E"></stop> <stop offset="0.31" style="stop-color:#7CC79F"></stop> <stop offset="0.56" style="stop-color:#72C3A2"></stop> <stop offset="0.79" style="stop-color:#61BAA8"></stop> <stop offset="1" style="stop-color:#4AAFAF"></stop> </linearGradient> <path class="st19" d="M109.2,18.8c17.9,16.4-37.1,30.5-5.4,66.8C87.7,65.9,136.2,42.3,109.2,18.8z"></path> <linearGradient id="SVGID_20_" gradientUnits="userSpaceOnUse" x1="-577.0084" y1="67.6425" x2="-577.0084" y2="119.3308" gradientTransform="matrix(0.7071 -0.7071 -0.7071 -0.7071 580.4337 -266.2644)"> <stop offset="0" style="stop-color:#7FC99E"></stop> <stop offset="0.31" style="stop-color:#7CC79F"></stop> <stop offset="0.56" style="stop-color:#72C3A2"></stop> <stop offset="0.79" style="stop-color:#61BAA8"></stop> <stop offset="1" style="stop-color:#4AAFAF"></stop> </linearGradient> <path class="st20" d="M109.2,109.2c17.9-16.3-38-33-5.8-67.2C87.3,61.8,136.2,85.7,109.2,109.2z"></path> <linearGradient id="SVGID_21_" gradientUnits="userSpaceOnUse" x1="-637.1088" y1="88.2464" x2="-637.1088" y2="131.6416" gradientTransform="matrix(0.7071 -0.7071 -0.7071 -0.7071 580.4337 -266.2644)"> <stop offset="0" style="stop-color:#7FC99E"></stop> <stop offset="0.31" style="stop-color:#7CC79F"></stop> <stop offset="0.56" style="stop-color:#72C3A2"></stop> <stop offset="0.79" style="stop-color:#61BAA8"></stop> <stop offset="1" style="stop-color:#4AAFAF"></stop> </linearGradient> <path class="st21" d="M18.8,109.2c16.4,17.9,30.7-37,66.8-5.4C65.9,87.7,42.3,136.2,18.8,109.2z"></path> <linearGradient id="SVGID_22_" gradientUnits="userSpaceOnUse" x1="-611.5117" y1="153.3391" x2="-662.7059" y2="153.3391" gradientTransform="matrix(0.7071 -0.7071 -0.7071 -0.7071 580.4337 -266.2644)"> <stop offset="0" style="stop-color:#7FC99E"></stop> <stop offset="0.21" style="stop-color:#68BEA5"></stop> <stop offset="0.44" style="stop-color:#57B5AB"></stop> <stop offset="0.69" style="stop-color:#4DB1AE"></stop> <stop offset="1" style="stop-color:#4AAFAF"></stop> </linearGradient> <path class="st22" d="M18.8,109.2C0.9,92.8,55.9,77.9,24.3,42.4C40.3,62.1-8.2,85.7,18.8,109.2z"></path> <linearGradient id="SVGID_23_" gradientUnits="userSpaceOnUse" x1="-620.3717" y1="144.1291" x2="-620.3717" y2="195.641" gradientTransform="matrix(0.7071 -0.7071 -0.7071 -0.7071 580.4337 -266.2644)"> <stop offset="0" style="stop-color:#7FC99E"></stop> <stop offset="0.31" style="stop-color:#7CC79F"></stop> <stop offset="0.56" style="stop-color:#72C3A2"></stop> <stop offset="0.79" style="stop-color:#61BAA8"></stop> <stop offset="1" style="stop-color:#4AAFAF"></stop> </linearGradient> <path class="st23" d="M18.8,18.8c-17.9,16.4,37.9,32.8,5.7,67C40.6,66-8.2,42.3,18.8,18.8z"></path> <linearGradient id="SVGID_24_" gradientUnits="userSpaceOnUse" x1="-620.407" y1="67.6424" x2="-620.407" y2="119.2531" gradientTransform="matrix(0.7071 -0.7071 -0.7071 -0.7071 580.4337 -266.2644)"> <stop offset="0" style="stop-color:#7FC99E"></stop> <stop offset="0.31" style="stop-color:#7CC79F"></stop> <stop offset="0.56" style="stop-color:#72C3A2"></stop> <stop offset="0.79" style="stop-color:#61BAA8"></stop> <stop offset="1" style="stop-color:#4AAFAF"></stop> </linearGradient> <path class="st24" d="M109.2,109.2c-16.3,17.9-33-38-67.1-5.7C61.8,87.4,85.7,136.2,109.2,109.2z"></path> <linearGradient id="SVGID_25_" gradientUnits="userSpaceOnUse" x1="-585.9002" y1="153.3391" x2="-534.706" y2="153.3391" gradientTransform="matrix(0.7071 -0.7071 -0.7071 -0.7071 580.4337 -266.2644)"> <stop offset="0" style="stop-color:#7FC99E"></stop> <stop offset="0.21" style="stop-color:#68BEA5"></stop> <stop offset="0.44" style="stop-color:#57B5AB"></stop> <stop offset="0.69" style="stop-color:#4DB1AE"></stop> <stop offset="1" style="stop-color:#4AAFAF"></stop> </linearGradient> <path class="st25" d="M109.2,18.8C92.8,0.9,77.8,56.2,42.4,24.3C62.1,40.3,85.7-8.2,109.2,18.8z"></path> <linearGradient id="SVGID_26_" gradientUnits="userSpaceOnUse" x1="-577.0084" y1="144.0654" x2="-577.0084" y2="195.6408" gradientTransform="matrix(0.7071 -0.7071 -0.7071 -0.7071 580.4337 -266.2644)"> <stop offset="0" style="stop-color:#7FC99E"></stop> <stop offset="1" style="stop-color:#4AAFAF"></stop> </linearGradient> <path class="st26" d="M18.8,18.8c16.4-17.9,33,37.9,67.1,5.7C66.1,40.6,42.3-8.2,18.8,18.8z"></path> <linearGradient id="SVGID_27_" gradientUnits="userSpaceOnUse" x1="-585.9002" y1="109.944" x2="-534.706" y2="109.944" gradientTransform="matrix(0.7071 -0.7071 -0.7071 -0.7071 580.4337 -266.2644)"> <stop offset="0" style="stop-color:#7FC99E"></stop> <stop offset="0.31" style="stop-color:#7CC79F"></stop> <stop offset="0.56" style="stop-color:#72C3A2"></stop> <stop offset="0.79" style="stop-color:#61BAA8"></stop> <stop offset="1" style="stop-color:#4AAFAF"></stop> </linearGradient> <path class="st27" d="M109.2,18.8c17.9,16.4-37.1,30.5-5.4,66.8C87.7,65.9,136.2,42.3,109.2,18.8z"></path> <linearGradient id="SVGID_28_" gradientUnits="userSpaceOnUse" x1="-577.0084" y1="67.6425" x2="-577.0084" y2="119.3308" gradientTransform="matrix(0.7071 -0.7071 -0.7071 -0.7071 580.4337 -266.2644)"> <stop offset="0" style="stop-color:#7FC99E"></stop> <stop offset="1" style="stop-color:#4AAFAF"></stop> </linearGradient> <path class="st28" d="M109.2,109.2c17.9-16.3-38-33-5.8-67.2C87.3,61.8,136.2,85.7,109.2,109.2z"></path> <linearGradient id="SVGID_29_" gradientUnits="userSpaceOnUse" x1="-637.1088" y1="88.2464" x2="-637.1088" y2="131.6416" gradientTransform="matrix(0.7071 -0.7071 -0.7071 -0.7071 580.4337 -266.2644)"> <stop offset="0" style="stop-color:#7FC99E"></stop> <stop offset="0.31" style="stop-color:#7CC79F"></stop> <stop offset="0.56" style="stop-color:#72C3A2"></stop> <stop offset="0.79" style="stop-color:#61BAA8"></stop> <stop offset="1" style="stop-color:#4AAFAF"></stop> </linearGradient> <path class="st29" d="M18.8,109.2c16.4,17.9,30.7-37,66.8-5.4C65.9,87.7,42.3,136.2,18.8,109.2z"></path> <linearGradient id="SVGID_30_" gradientUnits="userSpaceOnUse" x1="-611.5117" y1="153.3391" x2="-662.7059" y2="153.3391" gradientTransform="matrix(0.7071 -0.7071 -0.7071 -0.7071 580.4337 -266.2644)"> <stop offset="0" style="stop-color:#7FC99E"></stop> <stop offset="0.21" style="stop-color:#68BEA5"></stop> <stop offset="0.44" style="stop-color:#57B5AB"></stop> <stop offset="0.69" style="stop-color:#4DB1AE"></stop> <stop offset="1" style="stop-color:#4AAFAF"></stop> </linearGradient> <path class="st30" d="M18.8,109.2C0.9,92.8,55.9,77.9,24.3,42.4C40.3,62.1-8.2,85.7,18.8,109.2z"></path> <linearGradient id="SVGID_31_" gradientUnits="userSpaceOnUse" x1="-620.3717" y1="144.1291" x2="-620.3717" y2="195.641" gradientTransform="matrix(0.7071 -0.7071 -0.7071 -0.7071 580.4337 -266.2644)"> <stop offset="0" style="stop-color:#7FC99E"></stop> <stop offset="0.31" style="stop-color:#7CC79F"></stop> <stop offset="0.56" style="stop-color:#72C3A2"></stop> <stop offset="0.79" style="stop-color:#61BAA8"></stop> <stop offset="1" style="stop-color:#4AAFAF"></stop> </linearGradient> <path class="st31" d="M18.8,18.8c-17.9,16.4,37.9,32.8,5.7,67C40.6,66-8.2,42.3,18.8,18.8z"></path> <linearGradient id="SVGID_32_" gradientUnits="userSpaceOnUse" x1="-620.407" y1="67.6424" x2="-620.407" y2="119.2531" gradientTransform="matrix(0.7071 -0.7071 -0.7071 -0.7071 580.4337 -266.2644)"> <stop offset="0" style="stop-color:#7FC99E"></stop> <stop offset="1" style="stop-color:#4AAFAF"></stop> </linearGradient> <path class="st32" d="M109.2,109.2c-16.3,17.9-33-38-67.1-5.7C61.8,87.4,85.7,136.2,109.2,109.2z"></path> <path class="st0" d="M388.9,96c-0.9,0-1.8-0.6-1.8-1.8V34.1c0-0.9,0.7-1.6,1.8-1.7l9.8,0c11.1,0,17.2,6.4,17.2,18v1 c0,11.7-6.1,18.1-17.2,18.1h-8v24.6C390.7,95.4,389.8,96,388.9,96z M398.6,66c8.9,0,13.6-5,13.6-14.5v-1c0-9.4-4.7-14.4-13.6-14.4 h-8v30H398.6z"></path> <path class="st0" d="M498.1,96c-0.9,0-1.8-0.6-1.8-1.8V36h-10.8c-1.1,0-1.8-0.9-1.8-1.8s0.7-1.8,1.8-1.8h25.1c1.2,0,1.8,0.9,1.8,1.7 c0,0.9-0.6,1.9-1.8,1.9h-10.8v58.2C499.9,95.4,499,96,498.1,96z"></path> <path class="st0" d="M519.5,96c-0.9,0-1.8-0.5-1.8-1.7V34.2c0-1.2,0.9-1.8,1.8-1.8h22.1c1.2,0,1.7,0.9,1.7,1.7 c0,0.9-0.6,1.9-1.7,1.9h-20.3v26.4h13.6c1.1,0,1.7,1,1.7,1.9c0,0.8-0.5,1.7-1.7,1.7h-13.6v28.3C521.3,95.5,520.4,96,519.5,96z"></path> <path class="st0" d="M608.1,96c-1.2,0-1.9-1.5-2.5-2.7c-0.1-0.2-0.2-0.4-0.3-0.6l-13.7-26.8H585v28.2c0,1.2-0.9,1.8-1.8,1.8 s-1.8-0.6-1.8-1.8V34.1c0-0.9,0.7-1.6,1.8-1.7l8.7,0c14.9,0,18,9.1,18,16.7c0,12.1-7.7,15.7-14.4,16.6l14.1,27.4 c0.2,0.4,0.3,0.8,0.3,1.1C609.9,95.2,609.1,96,608.1,96z M591.9,62.3c6.6,0,14.4-2.3,14.4-13.2c0-10.9-7.8-13.1-14.4-13.1H585v26.4 H591.9z"></path> <g> <path class="st0" d="M647.8,95.9c-1,0-1.8-0.8-1.8-1.8V42.8l-11.2,29.1c-0.3,0.7-0.9,1.1-1.6,1.1l0,0c-0.7,0-1.4-0.4-1.6-1.1 l-11.2-29.1v51.3c0,1-0.8,1.8-1.8,1.8s-1.8-0.8-1.8-1.8V33.4c0-0.8,0.6-1.6,1.4-1.7c0.8-0.2,1.6,0.3,2,1.1l13,33.6l13-33.6 c0.3-0.8,1.1-1.2,2-1.1c0.8,0.2,1.4,0.9,1.4,1.7v60.8C649.6,95.1,648.8,95.9,647.8,95.9z"></path> </g> <path class="st0" d="M573.1,64.2"></path> <path class="st0" d="M669.2,95.8c-7.9,0-14.3-6.4-14.3-14.3c0-0.9,0.7-1.6,1.6-1.6s1.6,0.7,1.6,1.6c0,6.1,5,11.1,11.1,11.1 s11.1-5,11.1-11.1c0-9-6-13.6-12.4-18.5c-6-4.6-12.1-9.3-12.1-17.8c0-7.4,6-13.4,13.4-13.4c7.4,0,13.4,6,13.4,13.4 c0,0.9-0.7,1.6-1.6,1.6s-1.6-0.7-1.6-1.6c0-5.6-4.6-10.2-10.2-10.2c-5.6,0-10.2,4.6-10.2,10.2c0,6.9,5,10.8,10.9,15.2 c6.4,4.9,13.6,10.4,13.6,21.1C683.6,89.4,677.1,95.8,669.2,95.8z"></path> </svg> 